<svg id="visual" viewBox="0 0 900 600" width="900" height="600" xmlns="http://www.w3.org/2000/svg" xmlns:xlink="http://www.w3.org/1999/xlink" version="1.1"><g stroke-width="1" stroke-linejoin="bevel"><path d="M401 297L416 215L332 205Z" fill="#0c2435" stroke="#0c2435"></path><path d="M332 205L264 278L401 297Z" fill="#246688" stroke="#246688"></path><path d="M401 297L483 206L416 215Z" fill="#0c2435" stroke="#0c2435"></path><path d="M416 215L323 131L332 205Z" fill="#297ea6" stroke="#297ea6"></path><path d="M431 80L323 131L416 215Z" fill="#112e42" stroke="#112e42"></path><path d="M332 205L237 186L264 278Z" fill="#15384f" stroke="#15384f"></path><path d="M264 278L326 387L401 297Z" fill="#277297" stroke="#277297"></path><path d="M401 297L507 320L483 206Z" fill="#00101c" stroke="#00101c"></path><path d="M323 131L237 186L332 205Z" fill="#0c2435" stroke="#0c2435"></path><path d="M504 390L507 320L401 297Z" fill="#246688" stroke="#246688"></path><path d="M326 387L371 423L401 297Z" fill="#00101c" stroke="#00101c"></path><path d="M483 206L431 80L416 215Z" fill="#1d4e6b" stroke="#1d4e6b"></path><path d="M323 131L215 139L237 186Z" fill="#277297" stroke="#277297"></path><path d="M237 186L191 337L264 278Z" fill="#15384f" stroke="#15384f"></path><path d="M211 0L215 139L323 131Z" fill="#246688" stroke="#246688"></path><path d="M371 423L504 390L401 297Z" fill="#19435d" stroke="#19435d"></path><path d="M84 201L191 337L237 186Z" fill="#277297" stroke="#277297"></path><path d="M264 278L221 400L326 387Z" fill="#0c2435" stroke="#0c2435"></path><path d="M326 387L285 517L371 423Z" fill="#19435d" stroke="#19435d"></path><path d="M191 337L221 400L264 278Z" fill="#112e42" stroke="#112e42"></path><path d="M602 197L506 61L483 206Z" fill="#112e42" stroke="#112e42"></path><path d="M483 206L506 61L431 80Z" fill="#00101c" stroke="#00101c"></path><path d="M504 390L567 378L507 320Z" fill="#205a7a" stroke="#205a7a"></path><path d="M623 260L602 197L483 206Z" fill="#112e42" stroke="#112e42"></path><path d="M490 490L567 378L504 390Z" fill="#0c2435" stroke="#0c2435"></path><path d="M623 260L483 206L507 320Z" fill="#15384f" stroke="#15384f"></path><path d="M495 0L361 0L431 80Z" fill="#00101c" stroke="#00101c"></path><path d="M431 80L361 0L323 131Z" fill="#246688" stroke="#246688"></path><path d="M361 0L334 0L323 131Z" fill="#19435d" stroke="#19435d"></path><path d="M567 378L623 260L507 320Z" fill="#112e42" stroke="#112e42"></path><path d="M285 517L397 505L371 423Z" fill="#19435d" stroke="#19435d"></path><path d="M371 423L490 490L504 390Z" fill="#112e42" stroke="#112e42"></path><path d="M61 322L139 373L191 337Z" fill="#277297" stroke="#277297"></path><path d="M191 337L139 373L221 400Z" fill="#0c2435" stroke="#0c2435"></path><path d="M221 400L285 517L326 387Z" fill="#1d4e6b" stroke="#1d4e6b"></path><path d="M397 505L490 490L371 423Z" fill="#112e42" stroke="#112e42"></path><path d="M614 0L495 0L506 61Z" fill="#246688" stroke="#246688"></path><path d="M506 61L495 0L431 80Z" fill="#081a28" stroke="#081a28"></path><path d="M190 471L285 517L221 400Z" fill="#297ea6" stroke="#297ea6"></path><path d="M139 373L190 471L221 400Z" fill="#246688" stroke="#246688"></path><path d="M104 119L84 201L215 139Z" fill="#081a28" stroke="#081a28"></path><path d="M215 139L84 201L237 186Z" fill="#277297" stroke="#277297"></path><path d="M334 0L211 0L323 131Z" fill="#15384f" stroke="#15384f"></path><path d="M211 0L104 119L215 139Z" fill="#112e42" stroke="#112e42"></path><path d="M714 103L630 101L602 197Z" fill="#205a7a" stroke="#205a7a"></path><path d="M567 378L660 315L623 260Z" fill="#19435d" stroke="#19435d"></path><path d="M709 388L660 315L567 378Z" fill="#19435d" stroke="#19435d"></path><path d="M602 197L630 101L506 61Z" fill="#0c2435" stroke="#0c2435"></path><path d="M689 239L602 197L623 260Z" fill="#112e42" stroke="#112e42"></path><path d="M84 201L61 322L191 337Z" fill="#205a7a" stroke="#205a7a"></path><path d="M139 373L75 486L190 471Z" fill="#00101c" stroke="#00101c"></path><path d="M660 315L689 239L623 260Z" fill="#297ea6" stroke="#297ea6"></path><path d="M507 600L568 531L490 490Z" fill="#15384f" stroke="#15384f"></path><path d="M490 490L568 531L567 378Z" fill="#1d4e6b" stroke="#1d4e6b"></path><path d="M436 600L490 490L397 505Z" fill="#112e42" stroke="#112e42"></path><path d="M709 0L614 0L630 101Z" fill="#246688" stroke="#246688"></path><path d="M630 101L614 0L506 61Z" fill="#297ea6" stroke="#297ea6"></path><path d="M262 600L397 505L285 517Z" fill="#1d4e6b" stroke="#1d4e6b"></path><path d="M262 600L436 600L397 505Z" fill="#15384f" stroke="#15384f"></path><path d="M683 502L709 388L567 378Z" fill="#297ea6" stroke="#297ea6"></path><path d="M660 315L822 284L689 239Z" fill="#0c2435" stroke="#0c2435"></path><path d="M208 600L285 517L190 471Z" fill="#277297" stroke="#277297"></path><path d="M208 600L262 600L285 517Z" fill="#1d4e6b" stroke="#1d4e6b"></path><path d="M84 201L0 261L61 322Z" fill="#297ea6" stroke="#297ea6"></path><path d="M0 423L75 486L139 373Z" fill="#1d4e6b" stroke="#1d4e6b"></path><path d="M0 200L0 261L84 201Z" fill="#277297" stroke="#277297"></path><path d="M211 0L96 0L104 119Z" fill="#277297" stroke="#277297"></path><path d="M104 119L0 200L84 201Z" fill="#297ea6" stroke="#297ea6"></path><path d="M0 73L0 200L104 119Z" fill="#00101c" stroke="#00101c"></path><path d="M689 239L714 103L602 197Z" fill="#246688" stroke="#246688"></path><path d="M795 211L714 103L689 239Z" fill="#081a28" stroke="#081a28"></path><path d="M436 600L507 600L490 490Z" fill="#297ea6" stroke="#297ea6"></path><path d="M568 531L683 502L567 378Z" fill="#246688" stroke="#246688"></path><path d="M0 423L139 373L61 322Z" fill="#00101c" stroke="#00101c"></path><path d="M83 600L208 600L190 471Z" fill="#0c2435" stroke="#0c2435"></path><path d="M635 600L683 502L568 531Z" fill="#1d4e6b" stroke="#1d4e6b"></path><path d="M0 261L0 423L61 322Z" fill="#19435d" stroke="#19435d"></path><path d="M75 486L83 600L190 471Z" fill="#081a28" stroke="#081a28"></path><path d="M96 0L0 73L104 119Z" fill="#00101c" stroke="#00101c"></path><path d="M714 103L709 0L630 101Z" fill="#297ea6" stroke="#297ea6"></path><path d="M776 381L660 315L709 388Z" fill="#19435d" stroke="#19435d"></path><path d="M822 284L795 211L689 239Z" fill="#00101c" stroke="#00101c"></path><path d="M714 103L821 81L709 0Z" fill="#1d4e6b" stroke="#1d4e6b"></path><path d="M817 464L776 381L709 388Z" fill="#081a28" stroke="#081a28"></path><path d="M507 600L635 600L568 531Z" fill="#00101c" stroke="#00101c"></path><path d="M683 502L817 464L709 388Z" fill="#1d4e6b" stroke="#1d4e6b"></path><path d="M96 0L0 0L0 73Z" fill="#15384f" stroke="#15384f"></path><path d="M0 518L83 600L75 486Z" fill="#0c2435" stroke="#0c2435"></path><path d="M776 381L822 284L660 315Z" fill="#00101c" stroke="#00101c"></path><path d="M0 423L0 518L75 486Z" fill="#15384f" stroke="#15384f"></path><path d="M900 133L821 81L795 211Z" fill="#1d4e6b" stroke="#1d4e6b"></path><path d="M795 211L821 81L714 103Z" fill="#205a7a" stroke="#205a7a"></path><path d="M723 600L817 464L683 502Z" fill="#1d4e6b" stroke="#1d4e6b"></path><path d="M776 381L900 331L822 284Z" fill="#00101c" stroke="#00101c"></path><path d="M635 600L723 600L683 502Z" fill="#00101c" stroke="#00101c"></path><path d="M0 518L0 600L83 600Z" fill="#15384f" stroke="#15384f"></path><path d="M821 81L818 0L709 0Z" fill="#246688" stroke="#246688"></path><path d="M900 331L900 210L822 284Z" fill="#246688" stroke="#246688"></path><path d="M822 284L900 210L795 211Z" fill="#1d4e6b" stroke="#1d4e6b"></path><path d="M821 81L900 0L818 0Z" fill="#00101c" stroke="#00101c"></path><path d="M900 423L900 331L776 381Z" fill="#246688" stroke="#246688"></path><path d="M900 210L900 133L795 211Z" fill="#246688" stroke="#246688"></path><path d="M900 527L900 423L817 464Z" fill="#15384f" stroke="#15384f"></path><path d="M817 464L900 423L776 381Z" fill="#246688" stroke="#246688"></path><path d="M723 600L818 600L817 464Z" fill="#081a28" stroke="#081a28"></path><path d="M900 133L900 0L821 81Z" fill="#277297" stroke="#277297"></path><path d="M818 600L900 527L817 464Z" fill="#205a7a" stroke="#205a7a"></path><path d="M818 600L900 600L900 527Z" fill="#112e42" stroke="#112e42"></path></g></svg>